HIERARCHY
ROOT root
{
	OFFSET 0.000000 0.000000 0.000000
	CHANNELS 6 Xposition Yposition Zposition Zrotation Yrotation Xrotation
	JOINT lhip
	{
		OFFSET 0.058581 -0.082280 -0.017664
		CHANNELS 3 Zrotation Yrotation Xrotation
		JOINT lknee
		{
			OFFSET 0.043451 -0.386469 0.008037
			CHANNELS 3 Zrotation Yrotation Xrotation
			JOINT lankle
			{
				OFFSET -0.014790 -0.426874 -0.037428
				CHANNELS 3 Zrotation Yrotation Xrotation
				JOINT ltoe
				{
					OFFSET 0.041054 -0.060286 0.122042
					CHANNELS 3 Zrotation Yrotation Xrotation
					End Site
					{
						OFFSET 0.000000 0.000000 0.000000
					}
				}
			}
		}
	}
	JOINT rhip
	{
		OFFSET -0.060310 -0.090513 -0.013543
		CHANNELS 3 Zrotation Yrotation Xrotation
		JOINT rknee
		{
			OFFSET -0.043257 -0.383688 -0.004843
			CHANNELS 3 Zrotation Yrotation Xrotation
			JOINT rankle
			{
				OFFSET 0.019056 -0.420046 -0.034562
				CHANNELS 3 Zrotation Yrotation Xrotation
				JOINT rtoe
				{
					OFFSET -0.034840 -0.062106 0.130323
					CHANNELS 3 Zrotation Yrotation Xrotation
					End Site
					{
						OFFSET 0.000000 0.000000 0.000000
					}
				}
			}
		}
	}
	JOINT lowerback
	{
		OFFSET 0.004439 0.124404 -0.038385
		CHANNELS 3 Zrotation Yrotation Xrotation
		JOINT upperback
		{
			OFFSET 0.004488 0.137956 0.026820
			CHANNELS 3 Zrotation Yrotation Xrotation
			JOINT chest
			{
				OFFSET -0.002265 0.056032 0.002855
				CHANNELS 3 Zrotation Yrotation Xrotation
				JOINT lowerneck
				{
					OFFSET -0.013390 0.211636 -0.033468
					CHANNELS 3 Zrotation Yrotation Xrotation
					JOINT upperneck
					{
						OFFSET 0.010113 0.088937 0.050410
						CHANNELS 3 Zrotation Yrotation Xrotation
						End Site
						{
							OFFSET 0.000000 0.000000 0.000000
						}
					}
				}
				JOINT lclavicle
				{
					OFFSET 0.071702 0.114000 -0.018898
					CHANNELS 3 Zrotation Yrotation Xrotation
					JOINT lshoulder
					{
						OFFSET 0.122921 0.045205 -0.019046
						CHANNELS 3 Zrotation Yrotation Xrotation
						JOINT lelbow
						{
							OFFSET 0.255332 -0.015649 -0.022946
							CHANNELS 3 Zrotation Yrotation Xrotation
							JOINT lwrist
							{
								OFFSET 0.265709 0.012698 -0.007375
								CHANNELS 3 Zrotation Yrotation Xrotation
								End Site
								{
									OFFSET 0.000000 0.000000 0.000000
								}
							}
						}
					}
				}
				JOINT rclavicle
				{
					OFFSET -0.082954 0.112472 -0.023707
					CHANNELS 3 Zrotation Yrotation Xrotation
					JOINT rshoulder
					{
						OFFSET -0.113228 0.046853 -0.008472
						CHANNELS 3 Zrotation Yrotation Xrotation
						JOINT relbow
						{
							OFFSET -0.260127 -0.014369 -0.031269
							CHANNELS 3 Zrotation Yrotation Xrotation
							JOINT rwrist
							{
								OFFSET -0.269108 0.006794 -0.006027
								CHANNELS 3 Zrotation Yrotation Xrotation
								End Site
								{
									OFFSET 0.000000 0.000000 0.000000
								}
							}
						}
					}
				}
			}
		}
	}
}
MOTION
Frames: 16
Frame Time: 0.033333
-0.305865 0.406091 1.085640 -54.677225 -6.396142 89.427682 32.475418 -13.542669 -8.202146 -19.797049 2.899579 129.063187 -1.941239 23.887512 -20.634191 0.000000 -0.000000 0.000000 -17.805185 -3.594020 -24.977682 1.166197 2.713563 15.263913 -0.856814 -9.513565 34.385424 0.000000 -0.000000 0.000000 -17.700191 -3.802915 -2.139918 6.138196 -6.891370 10.394411 -0.780573 -4.995849 0.804493 -3.358389 -6.035287 45.598987 12.980911 -9.063113 -18.221092 0.862620 15.566499 11.451607 -5.750980 -6.804901 -1.857381 -101.770295 -80.820818 132.616403 29.864676 -23.227082 2.770580 -2.766762 -27.444602 0.065136 40.760986 -39.912408 -7.246936 29.699523 66.799186 64.872803 -18.194381 12.598494 -15.159363 
-0.368569 0.410316 1.027406 -54.016578 -7.805843 88.662180 32.437797 -16.267577 -15.614314 -19.272377 3.094158 134.595109 -1.117943 27.130569 -23.304002 0.000000 -0.000000 0.000000 -16.987535 -2.049762 -26.217320 1.074415 6.007628 28.686284 -2.871203 -11.530083 18.051527 0.000000 -0.000000 0.000000 -17.436976 -1.303571 -0.028407 4.982176 -6.069622 9.462353 -1.101538 -4.439370 0.516198 -4.749552 -7.636308 41.795361 13.556149 -8.990590 -15.504324 -2.403015 16.901694 10.733888 -8.053964 -6.839734 -0.832671 -101.259204 -80.698226 132.855367 29.531814 -22.367577 3.910260 1.710999 -26.214560 -0.408482 44.238234 -38.380726 -6.337759 34.241729 68.622680 68.951081 -18.385617 12.836680 -15.794495 
-0.418270 0.416104 0.974480 -55.528521 -7.844285 86.709002 30.053433 -17.878155 -22.499699 -17.730519 3.532191 136.493704 0.768494 28.490776 -23.997759 0.000000 -0.000000 0.000000 -14.483479 1.118004 -27.928346 3.299378 10.910706 44.068358 -4.714650 -13.540549 -2.473398 0.000000 -0.000000 0.000000 -14.507283 1.437150 6.050092 3.957452 -4.650745 8.035841 -1.880079 -3.377300 0.006437 -4.981899 -10.117783 33.258945 12.077575 -9.340561 -9.416870 -7.320118 18.620777 8.576900 -12.591180 -9.241119 1.714476 -91.784597 -80.323363 124.533265 28.505986 -20.627832 6.078749 10.103121 -23.781845 -4.221557 43.944793 -29.375652 0.255955 26.748934 67.861739 61.474743 -21.378481 11.096193 -11.474193 
-0.457407 0.418781 0.942869 -59.230779 -7.149310 85.257162 24.085841 -17.478174 -28.691336 -15.960893 5.293951 132.288704 4.598606 29.226626 -23.553293 0.000000 -0.000000 0.000000 -11.273859 2.438979 -28.160965 4.834605 12.169807 51.774795 -5.849398 -14.957606 -11.240335 0.000000 -0.000000 0.000000 -10.472769 2.548546 12.653540 3.379014 -3.831011 4.575301 -3.605663 -0.805608 0.531582 -7.297440 -14.066663 25.920355 9.680643 -5.804654 0.134656 -11.950950 19.981874 11.730561 -18.574441 -11.640027 1.040255 -86.786252 -78.343543 119.989654 22.725256 -11.859281 12.865984 19.152721 -19.667751 -1.570134 41.628702 -5.267572 -2.175556 18.154227 60.960987 61.977212 -25.165257 -3.635125 37.865721 
-0.493584 0.417247 0.933151 -63.532580 -6.689497 85.785721 16.419784 -16.504129 -33.642280 -14.393372 6.331881 120.845236 7.261369 26.552609 -23.553374 0.000000 -0.000000 0.000000 -8.464915 3.722788 -27.512590 5.175133 13.346945 53.788654 -5.636581 -15.610895 -16.863726 0.000000 -0.000000 0.000000 -7.665325 3.313363 15.065677 2.300004 -3.325334 3.576586 -3.978677 1.470377 -0.075777 -8.853363 -16.748928 21.665189 8.028552 -2.628811 7.029700 -15.148204 17.111353 13.366252 -24.656528 -9.814179 2.845793 -86.475537 -76.234187 120.912449 18.806698 -9.274985 20.075383 23.078133 -12.391966 2.276557 39.077992 10.317774 -4.162872 17.088665 53.771107 66.835006 -22.202374 -8.493281 60.540494 
-0.527539 0.414722 0.940001 -68.063217 -6.525887 87.581255 10.184533 -16.309219 -36.150030 -11.343417 5.364723 102.611094 7.256475 21.551663 -23.431359 0.000000 -0.000000 0.000000 -6.550400 6.401845 -26.472147 2.526010 12.934400 51.901830 -3.736782 -13.061716 -20.032900 0.000000 -0.000000 0.000000 -5.832710 5.015941 14.329266 1.137868 -1.981749 8.363039 -4.163116 1.916254 -4.629997 -6.994876 -14.824741 24.166518 8.259925 -4.576080 0.639654 -15.530846 13.034415 9.793338 -32.680253 -6.477495 11.158468 -78.672540 -78.183438 120.593397 20.985085 -18.553944 19.306512 20.422970 -6.360093 2.030208 45.833396 8.297677 6.830566 5.358093 62.517042 63.300774 -19.262333 18.615536 40.526658 
-0.558540 0.414205 0.960058 -71.219651 -5.940665 89.799932 6.523076 -15.837211 -35.558597 -8.412671 3.773696 79.566493 8.476739 19.544614 -20.619058 0.000000 -0.000000 0.000000 -4.646051 8.098389 -24.832162 0.909085 12.946972 47.537430 -2.740485 -11.802830 -17.861030 0.000000 -0.000000 0.000000 -4.121388 6.256578 14.154708 0.349820 -0.790573 9.078086 -4.412325 1.763681 -5.255066 -5.038801 -14.503389 22.136755 7.789392 -5.899012 2.183080 -16.908435 11.670981 5.637231 -37.678120 -6.009623 18.227478 -82.303660 -78.613444 123.380397 23.079579 -17.079677 12.200275 18.326881 -4.135071 -1.905163 56.785236 7.998258 16.311641 3.140024 73.336706 37.232321 -21.392449 13.266746 -6.293627 
-0.589502 0.410894 0.986802 -72.606113 -4.541590 92.394663 3.681473 -14.109684 -31.446442 -7.707231 -0.230298 56.562198 7.555762 17.077112 -15.414887 0.000000 -0.000000 0.000000 -3.533144 7.692427 -23.212049 0.702845 10.749269 42.373938 -0.660068 -9.406005 -13.353481 0.000000 -0.000000 0.000000 -3.275424 5.767565 12.626640 1.062589 -0.885201 10.651929 -4.097403 1.806296 -6.554787 -4.421220 -14.363291 20.702570 6.569712 -5.980243 3.776548 -18.347089 10.905626 5.435984 -43.517706 -5.712260 20.389148 -87.028590 -79.354880 128.618099 22.451732 -16.196825 12.820737 19.219905 -2.863076 -1.302036 61.186297 10.447567 18.928479 -3.666112 75.724933 30.208217 -23.489879 12.252756 -5.071586 
-0.623308 0.406098 1.009509 -74.664156 -2.920095 95.100155 1.982781 -12.064903 -25.799912 -7.369146 -4.522104 39.362695 5.589530 15.232035 -8.523623 0.000000 -0.000000 0.000000 -3.164291 7.464140 -22.473539 1.650847 7.833527 38.707272 1.214466 -5.863982 -9.186802 0.000000 -0.000000 0.000000 -3.495372 4.938193 8.809295 2.165094 -0.927187 13.891999 -3.465466 1.783985 -8.273024 -3.689487 -13.160095 20.399704 5.709644 -5.681204 4.430740 -18.991745 10.299350 5.861240 -48.954828 -5.458769 21.919332 -92.001380 -80.164122 133.929386 21.332045 -15.779606 14.416557 20.366106 -1.860555 0.309370 63.367590 11.120177 20.599727 -5.234111 76.730533 29.048365 -22.280059 13.151293 -4.309731 
-0.660893 0.401581 1.020525 -78.222926 -1.004311 97.263978 1.436960 -9.461481 -19.712484 -5.291649 -4.936053 28.463374 5.960610 16.321376 -5.923452 0.000000 -0.000000 0.000000 -2.275745 7.822403 -22.574709 2.937038 6.433601 37.927291 3.292224 -2.580598 -6.060113 0.000000 -0.000000 0.000000 -3.843699 4.194862 4.361594 3.157612 -0.534356 16.530911 -3.155163 1.771872 -8.930367 -2.571310 -11.440994 19.959213 5.099747 -5.140312 5.281954 -19.554652 9.859483 5.291902 -52.048773 -5.576967 22.958187 -96.222491 -79.645150 138.069834 20.343511 -15.802034 16.410542 21.621070 -1.978855 1.086157 63.794981 10.290666 21.615508 2.036371 76.176549 36.727797 -21.191038 14.255357 -2.543965 
-0.699445 0.396972 1.019809 -81.652386 1.181089 98.719617 1.705315 -6.011367 -13.957591 -3.274640 -3.355265 22.042580 7.571001 18.337413 -9.388832 0.000000 -0.000000 0.000000 -1.214561 8.606937 -23.698546 4.321285 4.774527 40.382342 5.578145 -0.401091 -3.126606 0.000000 -0.000000 0.000000 -3.424287 2.446116 1.762685 3.930538 -0.107651 16.009572 -3.137594 1.843581 -7.902464 -1.592720 -9.668322 19.025228 4.654045 -4.121764 5.418791 -20.377451 9.454767 3.803167 -53.252968 -5.712372 23.769375 -98.070075 -78.457113 139.594382 20.158462 -16.083106 17.281112 21.966711 -3.018542 0.636113 63.420086 7.706910 21.649234 13.315029 74.539337 48.388497 -20.823871 14.600238 -1.727653 
-0.736233 0.393650 1.012143 -83.797139 2.519094 99.645169 2.853717 -2.807003 -9.433687 -3.547984 -3.788934 17.381322 7.974777 18.801171 -11.756146 0.000000 -0.000000 0.000000 -0.837914 9.066772 -26.748089 5.553646 2.698016 46.609590 7.133739 0.488463 0.699160 0.000000 -0.000000 0.000000 -3.620190 0.100162 1.348195 4.485879 -0.114593 14.407431 -2.869585 1.618408 -6.822293 -0.549416 -7.915567 16.971767 4.530949 -3.136940 5.006347 -21.593562 8.189205 2.243207 -52.816059 -6.278686 24.264249 -99.091741 -77.942796 139.311631 20.415578 -16.621824 17.143766 22.180343 -3.921733 -0.498646 61.928606 3.965906 20.855791 20.386970 72.516073 55.021678 -21.035838 14.030483 -2.077154 
-0.772034 0.391204 1.003549 -84.345705 2.290509 99.891593 3.472955 -1.413409 -6.032794 -5.086520 -6.142530 15.667512 7.631362 19.041491 -13.057547 0.000000 -0.000000 0.000000 -1.747739 8.116931 -31.002717 6.061586 -0.371974 55.471225 6.814617 -0.397238 4.587932 0.000000 -0.000000 0.000000 -5.218539 -2.123055 2.102884 4.868821 -1.242416 14.614090 -2.376836 0.773170 -7.202109 -0.163587 -6.510004 14.992848 5.028654 -1.773552 3.880823 -23.405683 5.581494 2.056481 -50.145390 -8.150236 23.692420 -99.465891 -78.463608 137.772114 20.600916 -16.771781 17.697135 23.386768 -4.077585 -0.911241 59.384946 0.364300 19.212451 19.843780 70.454570 53.779006 -21.461185 13.056824 -1.923909 
-0.808543 0.387488 0.996734 -84.291247 1.734399 99.866360 3.378986 -0.518610 -2.944188 -6.114104 -8.686178 14.941944 7.216857 19.558465 -13.539006 0.000000 -0.000000 0.000000 -2.992672 5.947563 -36.081833 4.663498 -4.478309 64.852965 4.443920 -4.379607 4.774110 0.000000 -0.000000 0.000000 -6.244173 -4.081092 3.263318 4.913224 -2.585757 15.263892 -1.950270 -0.432714 -7.845874 -0.630208 -5.369946 13.213045 5.600736 -0.195021 3.301280 -24.771426 1.840154 3.014892 -46.807777 -10.659231 22.107474 -99.537204 -79.433329 136.159705 20.333015 -16.232977 19.629901 24.180737 -3.963761 -0.838467 56.833823 -3.644981 16.751455 17.107407 68.914579 50.440328 -22.375092 11.942128 -1.003392 
-0.846107 0.384517 0.993962 -84.734367 2.131436 99.932076 3.728336 0.909636 -0.144934 -6.177639 -10.649938 14.383086 6.039118 20.239707 -12.739830 0.000000 -0.000000 0.000000 -2.956793 3.667704 -41.519085 2.456559 -7.760324 71.573796 1.998624 -8.384972 0.467915 0.000000 -0.000000 0.000000 -5.688987 -5.637881 5.042954 4.698949 -2.998194 14.017817 -1.425358 -1.286033 -6.947666 -1.628890 -4.433279 11.500212 6.259079 0.839601 2.126249 -25.080344 -1.432553 2.907418 -44.439844 -13.698687 20.791363 -101.422998 -79.401164 136.733817 20.505019 -16.414864 21.233889 23.340351 -5.011413 -1.458745 54.452564 -8.600069 13.535431 19.317390 69.097701 51.977215 -22.702544 11.486362 -0.314838 
-0.885620 0.383384 0.998036 -84.701465 2.792444 100.426095 4.464727 1.624515 1.605415 -5.846117 -12.058002 14.436762 4.260115 20.513068 -9.589002 0.000000 -0.000000 0.000000 -2.453436 1.518921 -46.173320 0.948287 -10.729362 72.427321 0.526717 -10.696737 -2.836569 0.000000 -0.000000 0.000000 -4.794803 -6.999208 6.465812 4.788378 -3.476393 12.748338 -0.710243 -2.118168 -5.869684 -2.441805 -3.545016 9.632151 6.594425 1.466767 1.340131 -24.978996 -3.297921 2.405837 -43.174954 -17.135741 19.650988 -109.100294 -78.568739 142.922664 21.273222 -17.514281 21.901392 21.678198 -6.698988 -2.000390 51.654745 -13.822539 10.607526 25.855793 70.773380 56.772411 -22.543014 11.748902 -0.488976 
